<svg xmlns="http://www.w3.org/2000/svg"><symbol id="icon-arrow-left" viewBox="0 0 20 13"><path d="M19.7 7.3c.2 0 .3-.1.3-.3V5.9c0-.2-.1-.3-.3-.3H3l6.6-4c.2-.1.2-.3.1-.5l-.6-1C9 0 8.8 0 8.6.1L.2 5.5c-.1.1-.2.3-.2.4V7c0 .2.1.4.2.5L8.6 13c.2 0 .4 0 .5-.2l.6-1c.1-.2 0-.4-.1-.5L3 7.3h16.7z"/></symbol><symbol id="icon-arrow-right" viewBox="0 0 20 13"><path d="M.3 7.3C.1 7.3 0 7.2 0 7V5.9c0-.2.1-.3.3-.3H17l-6.6-4c-.2-.1-.2-.3-.1-.5l.6-1c.1-.1.3-.1.5 0l8.4 5.4c.1.1.2.3.2.4V7c0 .2-.1.4-.2.5L11.4 13c-.2.1-.4 0-.5-.1l-.6-1c-.1-.2 0-.4.1-.5l6.6-4H.3z"/></symbol><symbol id="icon-caret" viewBox="0 0 10.5 21"><path d="M.7 21l-.7-.7 9.1-9.8L0 .7.7 0l9.8 10.5z"/></symbol><symbol id="icon-hamburger" viewBox="0 0 25 15"><path d="M25 15H0v-1h25v1zm0-7H0V7h25v1zm0-7H0V0h25v1z"/></symbol><symbol id="icon-load-more" viewBox="0 0 50 50"><path d="M25.5 42.2h-1V25.5H7.8v-1h16.7V7.8h1v16.7h16.7v1H25.5z"/><path d="M25 50C11.2 50 0 38.8 0 25S11.2 0 25 0s25 11.2 25 25-11.2 25-25 25zm0-49C11.8 1 1 11.8 1 25s10.8 24 24 24 24-10.8 24-24S38.2 1 25 1z"/></symbol><symbol id="icon-search" viewBox="0 0 21 21"><path transform="rotate(-45.001 16.848 16.849)" d="M16.3 11.5h1.1v10.6h-1.1z"/><path d="M8.1 16.1c-4.5 0-8.1-3.6-8.1-8C0 3.6 3.6 0 8.1 0s8.1 3.6 8.1 8.1c-.1 4.4-3.7 8-8.1 8zM8.1 1C4.1 1 1 4.1 1 8.1c0 3.9 3.2 7.1 7.1 7.1 3.9 0 7.1-3.2 7.1-7.1 0-4-3.2-7.1-7.1-7.1z"/></symbol><symbol id="icon-x" viewBox="0 0 18.4 18.4"><path transform="rotate(-45.001 9.192 9.192)" d="M8.7-3.3h1v25h-1z"/><path transform="rotate(-45.001 9.193 9.193)" d="M-3.3 8.7h25v1h-25z"/></symbol></svg>